<?xml version="1.0" standalone="no"?>
<!DOCTYPE svg PUBLIC "-//W3C//DTD SVG 20010904//EN"
 "http://www.w3.org/TR/2001/REC-SVG-20010904/DTD/svg10.dtd">
<svg version="1.0" xmlns="http://www.w3.org/2000/svg"
 width="512.000000pt" height="512.000000pt" viewBox="0 0 512.000000 512.000000"
 preserveAspectRatio="xMidYMid meet">
<metadata>
Created by potrace 1.14, written by Peter Selinger 2001-2017
</metadata>
<g transform="translate(0.000000,512.000000) scale(0.100000,-0.100000)"
fill="#000000" stroke="none">
<path d="M324 2618 l1 -1903 443 -3 442 -2 0 290 c0 159 0 832 0 1495 0 663 0
1390 0 1615 l0 410 -444 0 -444 0 2 -1902z"/>
<path d="M1970 2616 l0 -1906 453 0 452 0 0 716 c0 471 3 718 10 720 5 2 226
5 490 8 510 5 526 6 678 37 259 53 522 232 666 453 83 129 153 319 185 499 14
79 16 373 4 422 -3 11 -9 40 -13 65 -19 116 -107 309 -189 414 -210 268 -459
408 -806 452 -30 3 -68 9 -85 11 -16 3 -438 7 -937 10 l-908 4 0 -1905z m1685
1199 c200 -57 329 -190 360 -372 10 -59 8 -177 -4 -228 -31 -129 -125 -258
-228 -312 -118 -62 -168 -68 -573 -68 l-365 0 -1 490 c0 270 2 496 4 503 3 9
84 11 376 8 314 -3 380 -6 431 -21z"/>
</g>
</svg>
